<svg xmlns="http://www.w3.org/2000/svg" viewBox="0 0 870.5 228">
    <g>
        <path d="M210,139.41V94.52H196.61V75.46H210V70.22a21.14,21.14,0,0,1,3.81-12.52,23.49,23.49,0,0,1,9.82-7.86,31.71,31.71,0,0,1,12.92-2.58,45.28,45.28,0,0,1,9.51.94,43.61,43.61,0,0,1,8.13,2.61l5.49,2.39-7.64,17.68-5.51-2.37A21.39,21.39,0,0,0,242,67.13a27.26,27.26,0,0,0-5.18-.48c-3.46,0-4.77.73-5.18,1S231,68.8,231,70v5.45h20l-2.59,19.06H231v44.89Z" fill="#fff"/>
        <path d="M236.59,53.26a39.31,39.31,0,0,1,8.24.8,38.26,38.26,0,0,1,7,2.25L249,63a28.75,28.75,0,0,0-5.78-1.77,33.54,33.54,0,0,0-6.32-.58c-3.92,0-6.87.76-8.85,2.3s-3,3.88-3,7.06V81.46h19.1l-1,7.06H225v44.89h-9V88.52H202.61V81.46H216V70.22a15.2,15.2,0,0,1,2.7-9,17.57,17.57,0,0,1,7.36-5.86A25.7,25.7,0,0,1,236.59,53.26Z" fill="#032ca6"/>
        <path d="M283.78,140.64c-7.18,0-12.77-2.11-16.63-6.28s-5.64-9.52-5.64-16.3v-47h21V117c0,3.09.68,3.92.68,3.92.19.2,1,.56,2.79.56a10.07,10.07,0,0,0,5.57-1.7,16.05,16.05,0,0,0,3.68-3.17V71.07h21v68.34H297.12l-.2-2-.76.37A29,29,0,0,1,283.78,140.64Z" fill="#fff"/>
        <path d="M276.5,77.07V117q0,5.57,2.3,8t7.17,2.46a16.11,16.11,0,0,0,8.8-2.64,20.55,20.55,0,0,0,6.45-6.29V77.07h9v56.34h-7.65l-.75-7.6a22,22,0,0,1-8.19,6.56,23.13,23.13,0,0,1-9.84,2.27q-8.19,0-12.23-4.36t-4-12.22v-41Z" fill="#032ca6"/>
        <path d="M359.53,139.41V99.12a48.53,48.53,0,0,0-.55-8.28,4.11,4.11,0,0,0-.51-1.55A7,7,0,0,0,355.9,89a7.9,7.9,0,0,0-3.57.82,15.09,15.09,0,0,0-3.71,2.58,23.55,23.55,0,0,0-1.91,2v45h-21V71.07h19.14l.2,2.22c.37-.19.74-.37,1.13-.54a30.4,30.4,0,0,1,12.49-2.85c7.33,0,12.92,2.17,16.62,6.47,3.46,4,5.22,9.45,5.22,16.11v46.93Z" fill="#fff"/>
        <path d="M331.72,133.41V77.07h7.65l.69,7.81a22.66,22.66,0,0,1,8.59-6.66,24.37,24.37,0,0,1,10-2.33q8.29,0,12.07,4.39t3.77,12.2v40.93h-9V99.12a54.39,54.39,0,0,0-.64-9.34,8.25,8.25,0,0,0-2.68-5.19C360.86,83.5,358.75,83,355.9,83a13.87,13.87,0,0,0-6.23,1.44A21,21,0,0,0,344.48,88a27.2,27.2,0,0,0-3.77,4.36v41Z" fill="#032ca6"/>
        <path d="M421.39,140.64A33,33,0,0,1,404,136.15a29.21,29.21,0,0,1-11.31-12.72,41.67,41.67,0,0,1-3.68-18,41.59,41.59,0,0,1,3.69-17.7,30.85,30.85,0,0,1,11.21-13.06A31.72,31.72,0,0,1,421.5,69.9a37,37,0,0,1,12.09,1.95,34.21,34.21,0,0,1,10.56,5.94l4.37,3.61L437.31,96.7l-4.81-3.37a23.54,23.54,0,0,0-5.73-3,16.4,16.4,0,0,0-5.38-.92A9.19,9.19,0,0,0,414,92.76c-2.16,2.5-3.25,6.78-3.25,12.72a23.87,23.87,0,0,0,1.62,9.73,9.11,9.11,0,0,0,3.52,4.28,10.62,10.62,0,0,0,5.55,1.39,16,16,0,0,0,5.76-1,25.51,25.51,0,0,0,5.49-2.86l4.76-3.28,11.2,15-4.26,3.65a33.72,33.72,0,0,1-10.8,6.08A36.74,36.74,0,0,1,421.39,140.64Z" fill="#fff"/>
        <path d="M421.39,126.88a22,22,0,0,0,7.89-1.39,31.29,31.29,0,0,0,6.77-3.53l4.39,5.89a27.6,27.6,0,0,1-8.88,5,30.45,30.45,0,0,1-10.17,1.82A26.92,26.92,0,0,1,407.08,131a23.23,23.23,0,0,1-9-10.16,35.61,35.61,0,0,1-3.1-15.39,35.48,35.48,0,0,1,3.13-15.17,24.81,24.81,0,0,1,9-10.56,25.74,25.74,0,0,1,14.37-3.86,30.89,30.89,0,0,1,10.14,1.64,28,28,0,0,1,8.69,4.89l-4.39,6a29.8,29.8,0,0,0-7.19-3.77,22.45,22.45,0,0,0-7.36-1.25,15.13,15.13,0,0,0-12,5.45q-4.69,5.46-4.7,16.64,0,7.5,2.16,12.23a15,15,0,0,0,5.94,7A16.63,16.63,0,0,0,421.39,126.88Z" fill="#032ca6"/>
        <path d="M489.77,140.64c-7.65,0-13.77-2.17-18.19-6.45a22.14,22.14,0,0,1-6.75-16.56V90H451.88v-19h12.95V59l21-2.5V71.07h20.47l-2.92,19H485.82v27.49a4.42,4.42,0,0,0,.7,2.9s.83.73,4.05.73a16,16,0,0,0,4.21-.52,21.32,21.32,0,0,0,3.87-1.49l5.1-2.62,9.09,15.94-4.65,3.11a29.14,29.14,0,0,1-8.83,3.81A38.18,38.18,0,0,1,489.77,140.64Z" fill="#fff"/>
        <path d="M504.86,130.58a23.09,23.09,0,0,1-7,3,31.78,31.78,0,0,1-8.08,1.07q-9.11,0-14-4.76a16.29,16.29,0,0,1-4.92-12.25V84H457.88v-7h12.95V64.28l9-1.07V77.07h19.47l-1.07,7h-18.4v33.49q0,4.71,2.48,7.17t8.27,2.46a21.54,21.54,0,0,0,5.83-.75,27.09,27.09,0,0,0,5-1.92Z" fill="#032ca6"/>
        <path d="M520.47,139.41V120.3h17.39V90.19H521V71.07h37.84V120.3h15.89v19.11Zm25.21-70A12.25,12.25,0,0,1,533.21,57a12,12,0,0,1,3.57-8.68,13,13,0,0,1,18,0A12.1,12.1,0,0,1,558.26,57a12.2,12.2,0,0,1-12.58,12.42Z" fill="#fff"/>
        <path d="M552.85,77.07V126.3h15.89v7.11H526.47V126.3h17.39V84.19H527V77.07Zm-7.17-26.38a6.44,6.44,0,0,1,4.79,1.82A6.13,6.13,0,0,1,552.26,57,6.65,6.65,0,0,1,541,61.53,6.27,6.27,0,0,1,539.21,57,6.07,6.07,0,0,1,541,52.51,6.34,6.34,0,0,1,545.68,50.69Z" fill="#032ca6"/>
        <path d="M609.88,140.64A29.33,29.33,0,0,1,593.21,136a28.28,28.28,0,0,1-10.34-12.91,45.92,45.92,0,0,1-3.22-17.75,45.45,45.45,0,0,1,3.25-17.67A27.83,27.83,0,0,1,610,69.9c6.51,0,12.12,1.55,16.7,4.63A27.88,27.88,0,0,1,637,87.42a46.86,46.86,0,0,1,3.15,17.8,45.17,45.17,0,0,1-3.25,17.56,29.42,29.42,0,0,1-10.24,13A28.52,28.52,0,0,1,609.88,140.64ZM610,89.23c-3.64,0-5.1,1.41-6.06,2.78-1.21,1.76-2.65,5.48-2.65,13.31s1.43,11.4,2.63,13.17c.93,1.37,2.37,2.77,6,2.77s5-1.4,6-2.77c1.2-1.77,2.63-5.51,2.63-13.27s-1.42-11.5-2.61-13.26C615,90.61,613.55,89.23,610,89.23Z" fill="#fff"/>
        <path d="M610,75.89q8,0,13.35,3.62a21.84,21.84,0,0,1,8.08,10.19,40.75,40.75,0,0,1,2.7,15.52,39.19,39.19,0,0,1-2.78,15.24,23.37,23.37,0,0,1-8.16,10.41,22.54,22.54,0,0,1-13.3,3.77A23.36,23.36,0,0,1,596.56,131a22.45,22.45,0,0,1-8.16-10.25,40,40,0,0,1-2.75-15.44A39.33,39.33,0,0,1,588.43,90,21.89,21.89,0,0,1,610,75.89Zm0,7.33q-7.28,0-11,5.38t-3.72,16.72q0,11.13,3.66,16.53t10.94,5.41q7.27,0,11-5.41t3.66-16.63q0-11.25-3.64-16.62T610,83.22Z" fill="#032ca6"/>
        <path d="M680.56,139.41V99.12a49.5,49.5,0,0,0-.55-8.28,3.83,3.83,0,0,0-.52-1.55,6.91,6.91,0,0,0-2.56-.33,7.87,7.87,0,0,0-3.57.82,15,15,0,0,0-3.72,2.58,25.22,25.22,0,0,0-1.91,2v45h-21V71.07h19.14l.2,2.22c.37-.19.75-.37,1.13-.54a30.48,30.48,0,0,1,12.5-2.85c7.33,0,12.92,2.17,16.61,6.47,3.47,4,5.23,9.45,5.23,16.11v46.93Z" fill="#fff"/>
        <path d="M652.74,133.41V77.07h7.65l.7,7.81a22.51,22.51,0,0,1,8.59-6.66,24.33,24.33,0,0,1,10-2.33q8.29,0,12.06,4.39t3.78,12.2v40.93h-9V99.12a54.24,54.24,0,0,0-.65-9.34,8.24,8.24,0,0,0-2.67-5.19q-2-1.64-6.31-1.63a13.91,13.91,0,0,0-6.24,1.44A21.41,21.41,0,0,0,665.5,88a28.25,28.25,0,0,0-3.77,4.36v41Z" fill="#032ca6"/>
        <path d="M758.91,140.59a20.56,20.56,0,0,1-8.94-3.3,15.62,15.62,0,0,1-1.75-1.38,25.74,25.74,0,0,1-4,2.22,30.68,30.68,0,0,1-12.48,2.51c-7.23,0-13.12-2.18-17.51-6.47s-6.68-10-6.68-16.92c0-7.77,3.25-14.11,9.41-18.32,5.6-3.84,13.13-5.71,23-5.71h2.23a3.51,3.51,0,0,0-1-2.46c-1.3-.94-3.51-1.43-6.38-1.43a32.38,32.38,0,0,0-5.48.58,45.63,45.63,0,0,0-7.18,2l-5.7,2-6.25-18,5.5-2a62.45,62.45,0,0,1,10.79-3,56.37,56.37,0,0,1,9.71-.89c8.56,0,15.25,2.18,19.89,6.49s7.19,10.39,7.19,17.7v27a9.23,9.23,0,0,0,.09,1.38,2.38,2.38,0,0,0,.33.12l5.87,1.87-5.82,16.75Zm-18.8-29.27c-6.61,0-8.77,1.38-9.27,1.81a4.65,4.65,0,0,0-1.69,4c0,1,.13,2.88,1,3.7.6.6,2,.94,3.91.94a10.18,10.18,0,0,0,5.06-1.35,11.56,11.56,0,0,0,3.18-2.6v-6.52Z" fill="#fff"/>
        <path d="M757.29,121.11a8.51,8.51,0,0,0,1.12,4.92,6.62,6.62,0,0,0,3.48,2.3l-2.19,6.31a14.59,14.59,0,0,1-6.37-2.32,10.38,10.38,0,0,1-4-5.6,19.44,19.44,0,0,1-7.6,5.92,24.75,24.75,0,0,1-10.06,2q-8.44,0-13.32-4.76t-4.87-12.63q0-8.72,6.8-13.37T740,99.22h8.3V94.51q0-6.09-3.56-8.64t-9.87-2.54a38.41,38.41,0,0,0-6.53.67,52.7,52.7,0,0,0-8.13,2.22l-2.36-6.79a55.39,55.39,0,0,1,9.74-2.73,49.46,49.46,0,0,1,8.67-.81q10.53,0,15.81,4.9t5.27,13.3ZM734,127.79a16.18,16.18,0,0,0,8-2.11,17.72,17.72,0,0,0,6.26-5.86v-14.5h-8.14q-9.3,0-13.13,3.21a10.68,10.68,0,0,0-3.83,8.62q0,5.23,2.71,7.94T734,127.79Z" fill="#032ca6"/>
        <path d="M810.9,140.64c-6.49,0-11.92-1.9-16.14-5.66-4.42-3.94-6.66-9.31-6.66-16V67.5H770.82V48.39h38.27V119.5a4.27,4.27,0,0,0,.1,1,6.71,6.71,0,0,0,3.21.62,15.61,15.61,0,0,0,3.51-.38,24.94,24.94,0,0,0,3.75-1.18l5.73-2.26,6.38,17.44-4.86,2.37a36,36,0,0,1-6.82,2.43A36.92,36.92,0,0,1,810.9,140.64Z" fill="#fff"/>
        <path d="M803.09,54.39V119.5c0,2.78.86,4.76,2.59,5.91a11.85,11.85,0,0,0,6.72,1.74,21.9,21.9,0,0,0,4.87-.53,33,33,0,0,0,4.6-1.45l2.41,6.58a31.08,31.08,0,0,1-5.7,2,30.59,30.59,0,0,1-7.68.88c-5,0-9-1.38-12.15-4.14s-4.65-6.59-4.65-11.48V61.5H776.82V54.39Z" fill="#032ca6"/>
        <path d="M111.25,127.42l5.32-5.82H74.63V100.39h0c-.74.8-1.72,4-2.93,9.39-2.22,10-6.34,28.52-28.06,28.52h-6v-22h6c3.13,0,4.07,0,6.59-11.3,2.07-9.33,5.94-26.7,25.41-26.7,12.13,0,27.63-.22,40.2-.45l-4.6-5,17.55-15,37.83,42.23-37.83,42.24ZM135.89,99.8l-.32-.34-16.79.34Z" fill="#fff"/>
        <path d="M128.22,66.26l-8.35,7.12,5.67,6.15c.75.86,1.58,1.71,2.49,2.57a17.26,17.26,0,0,0,1.83,1.48c-13.83.29-37.17.73-54.23.73-14.66,0-17.49,12.72-19.56,22-2.52,11.36-4.36,16-12.44,16v10c16.91,0,20-13.77,22.21-23.82,2.44-11,4-14.18,9.79-14.18,21.33,0,52.38-.68,62.67-.92l.83,1.07,5.19,5.67-5.19,5.67H80.63v9.8h50.9a22.59,22.59,0,0,0-3.5,2.51,26.11,26.11,0,0,0-2.49,2.57l-5.67,6.2,8.35,7.12,30.33-33.87Z" fill="#032ca6"/>
    </g>
    <rect x="704.5" y="158" width="114" height="36" fill="#fff"/>
    <g>
        <path d="M721,169l9.23,5.7v2.06l-9.11,5.7L720.05,181l8.47-5.24-8.47-5.22Z" fill="#032ca6"/>
        <path d="M755.33,166.48a7.58,7.58,0,0,1,2.71.41,7.43,7.43,0,0,1,2.08,1.2L759,169.44a5,5,0,0,0-1.65-.94,5.82,5.82,0,0,0-1.82-.28,5,5,0,0,0-2.51.64,4.6,4.6,0,0,0-1.86,2.12,9.67,9.67,0,0,0-.7,4,9.86,9.86,0,0,0,.67,3.95,4.41,4.41,0,0,0,1.81,2.14,5,5,0,0,0,2.54.66,5.42,5.42,0,0,0,2.29-.42,8,8,0,0,0,1.55-1l1.08,1.36a6.63,6.63,0,0,1-2,1.27,7.48,7.48,0,0,1-3,.53,6.91,6.91,0,0,1-3.63-1,6.81,6.81,0,0,1-2.58-2.89,10.42,10.42,0,0,1-1-4.67,10.13,10.13,0,0,1,1-4.68,6.83,6.83,0,0,1,2.58-2.87A6.66,6.66,0,0,1,755.33,166.48Z" fill="#032ca6"/>
        <path d="M774.42,175a13.29,13.29,0,0,1-.67,4.42,6.64,6.64,0,0,1-2,3,5.24,5.24,0,0,1-3.37,1.08,5.3,5.3,0,0,1-3.37-1.06,6.34,6.34,0,0,1-2-3,14.9,14.9,0,0,1,0-8.9,6.52,6.52,0,0,1,2-3,5.16,5.16,0,0,1,3.37-1.1,5.23,5.23,0,0,1,3.37,1.07,6.46,6.46,0,0,1,2,3A13.56,13.56,0,0,1,774.42,175Zm-2.18,0a11.17,11.17,0,0,0-.91-5.05,3.1,3.1,0,0,0-3-1.75,3.13,3.13,0,0,0-3,1.76,11.44,11.44,0,0,0-.9,5.07,10.67,10.67,0,0,0,.94,5,3.43,3.43,0,0,0,6,0A11.09,11.09,0,0,0,772.24,175Z" fill="#032ca6"/>
        <path d="M788.44,171.38a4.26,4.26,0,0,1-.53,2.15,4.51,4.51,0,0,1-1.45,1.53,6.38,6.38,0,0,1-2.05.87l4.89,7.34h-2.49l-4.52-7.1h-2.23v7.1H778V166.74h4.25a7.73,7.73,0,0,1,4.64,1.17A4.06,4.06,0,0,1,788.44,171.38Zm-2.23,0a2.68,2.68,0,0,0-.92-2.29,4.68,4.68,0,0,0-2.83-.69h-2.4v6.14h2.4a4.58,4.58,0,0,0,2.76-.72A2.84,2.84,0,0,0,786.21,171.38Z" fill="#032ca6"/>
        <path d="M795,168.45V174h6.12v1.72H795v5.87h7.51v1.67H793V166.74h9.38l-.24,1.71Z" fill="#032ca6"/>
    </g>
</svg>